# xmcd
#
# Track frame offsets:
#  150
#  13960
#  25347
#  41875
#  60545
#  75287
#  88087
#  99092
#  116785
#  131882
#  147642
#  163092
#  178150
#  190450
#  204607
#  221112
#  236120
#  253340
#  268412
#  279822
#  293517
#  308287
#
# Disc length: 4323 seconds
#
# Revision: 3
# Processed by: cddbd v1.5.1PL2 Copyright (c) Steve Scherf et al.
# Submitted via: Collectorz.com_Music_Collector 6.11
#
DISCID=5110e116
DTITLE=Various Artist - Contemporary Country: Late '80s
DYEAR=1900
DGENRE=Country
TTITLE0=Clint Black - Better Man
TTITLE1=Highway 101 - Cry, Cry, Cry
TTITLE2=Randy Travis - I Told You So
TTITLE3=K.T. Oslin -   I'll Always Come Back 
TTITLE4=Keith Whitley - I Wonder Do You Think of Me
TTITLE5=Michael Johnson -   The Moon is Still Over Her Shoulder 
TTITLE6=Vern Gosdin - Set 'Em Up Joe
TTITLE7=Restless Heart - Bluest Eyes in Texas
TTITLE8=Rosanne Cash -  If You Change Your Mind 
TTITLE9=Reba McEntire -   What Am I Gonna Do about You 
TTITLE10=Merle Haggard - Twinkle, Twinkle Lucky Star
TTITLE11=Nitty Gritty Dirt Band - Fishin' in the Dark
TTITLE12=Tanya Tucker - Strong Enough to Bend
TTITLE13=George Strait - Ocean Front Property
TTITLE14=The Judds - Cry Myself to Sleep
TTITLE15=Ricky Van Shelton - Somebody Lied
TTITLE16=Eddy Raven - Joe Knows how to Live
TTITLE17=Eddie Rabbitt - The Wanderer
TTITLE18=Patty Loveless - Timber, I'm Falling in Love
TTITLE19=Alabama - High Cotton
TTITLE20=Ronnie Milsap - A Woman in Love
TTITLE21=Earl Thomas Conley and Emmylou Harris - We Believe in Happy Endings
EXTD=
EXTT0=
EXTT1=
EXTT2=
EXTT3=
EXTT4=
EXTT5=
EXTT6=
EXTT7=
EXTT8=
EXTT9=
EXTT10=
EXTT11=
EXTT12=
EXTT13=
EXTT14=
EXTT15=
EXTT16=
EXTT17=
EXTT18=
EXTT19=
EXTT20=
EXTT21=
PLAYORDER=
